<svg width="105" height="105" viewBox="0 0 105 105" fill="none" xmlns="http://www.w3.org/2000/svg">
    <path fill-rule="evenodd" clip-rule="evenodd" d="M52.5 105C81.4949 105 105 81.4949 105 52.5C105 23.5051 81.4949 0 52.5 0C23.5051 0 0 23.5051 0 52.5C0 81.4949 23.5051 105 52.5 105ZM52.5 97.0477C77.103 97.0477 97.0477 77.103 97.0477 52.5C97.0477 27.897 77.103 7.95228 52.5 7.95228C27.897 7.95228 7.95228 27.897 7.95228 52.5C7.95228 77.103 27.897 97.0477 52.5 97.0477Z" fill="#F39C12"/>
    <path d="M51.557 59.328C50.6212 57.9455 51.6909 56.0928 53.356 56.212L81.4853 58.2253C82.9583 58.3307 83.813 59.9413 83.0746 61.2202L70.7535 82.561C70.0151 83.8398 68.193 83.905 67.3652 82.6821L51.557 59.328Z" fill="#F39C12"/>
    <path d="M52.6856 46.5603C53.6213 47.9427 52.5516 49.7955 50.8865 49.6763L22.7572 47.663C21.2842 47.5576 20.4296 45.947 21.1679 44.6681L33.4891 23.3273C34.2274 22.0484 36.0496 21.9833 36.8773 23.2062L52.6856 46.5603Z" fill="#F39C12"/>
</svg>
