<svg width="120" height="117" viewBox="0 0 120 117" fill="none" xmlns="http://www.w3.org/2000/svg">
    <rect width="118" height="117" rx="58.5" fill="#2C3E50"/>
    <mask id="path-2-inside-1_4_2" fill="white">
        <path fill-rule="evenodd" clip-rule="evenodd" d="M63 110.864C90.3631 109.063 112 86.2978 112 58.479C112 30.6601 90.3631 7.89485 63 6.0938V17.1245C84.2819 18.9017 101 36.738 101 58.479C101 80.22 84.2819 98.0563 63 99.8335V110.864ZM25.6791 82.5345C32.9319 92.7133 44.6649 99.4786 58 99.9524V110.958C40.5502 110.468 25.2302 101.464 16.0475 87.9523L25.6791 82.5345ZM58 17.0056C35.775 17.7952 18 36.0613 18 58.479C18 65.6537 19.8207 72.4032 23.0252 78.2905L13.5487 83.6211L15.6575 87.3701C10.1854 79.0829 7 69.1529 7 58.479C7 29.9857 29.6987 6.794 58 6V17.0056Z"/>
    </mask>
    <path d="M63 110.864H62V111.932L63.0657 111.862L63 110.864ZM63 6.0938L63.0657 5.09596L62 5.02582V6.0938H63ZM63 17.1245H62V18.0445L62.9168 18.121L63 17.1245ZM63 99.8335L62.9168 98.8369L62 98.9135V99.8335H63ZM58 99.9524H59V98.9873L58.0355 98.953L58 99.9524ZM25.6791 82.5345L26.4935 81.9542L25.972 81.2224L25.1888 81.6629L25.6791 82.5345ZM58 110.958L57.972 111.958L59 111.986V110.958H58ZM16.0475 87.9523L15.5572 87.0807L14.6087 87.6142L15.2204 88.5144L16.0475 87.9523ZM58 17.0056L58.0355 18.005L59 17.9707V17.0056H58ZM23.0252 78.2905L23.5155 79.1621L24.375 78.6786L23.9036 77.8125L23.0252 78.2905ZM13.5487 83.6211L13.0584 82.7495L12.1869 83.2398L12.6771 84.1114L13.5487 83.6211ZM15.6575 87.3701L14.823 87.9211L16.5291 86.8798L15.6575 87.3701ZM58 6H59V4.97155L57.972 5.00039L58 6ZM111 58.479C111 85.7676 89.7753 108.1 62.9343 109.866L63.0657 111.862C90.951 110.027 113 86.8281 113 58.479H111ZM62.9343 7.09164C89.7753 8.85832 111 31.1904 111 58.479H113C113 30.1299 90.951 6.93138 63.0657 5.09596L62.9343 7.09164ZM64 17.1245V6.0938H62V17.1245H64ZM62.9168 18.121C83.6848 19.8553 100 37.2623 100 58.479H102C102 36.2136 84.8789 17.948 63.0832 16.128L62.9168 18.121ZM100 58.479C100 79.6956 83.6848 97.1027 62.9168 98.8369L63.0832 100.83C84.8789 99.0099 102 80.7444 102 58.479H100ZM64 110.864V99.8335H62V110.864H64ZM58.0355 98.953C45.0235 98.4907 33.5732 91.8901 26.4935 81.9542L24.8647 83.1148C32.2905 93.5364 44.3064 100.467 57.9645 100.952L58.0355 98.953ZM59 110.958V99.9524H57V110.958H59ZM15.2204 88.5144C24.5764 102.281 40.1881 111.459 57.972 111.958L58.028 109.958C40.9123 109.478 25.8841 100.647 16.8746 87.3902L15.2204 88.5144ZM25.1888 81.6629L15.5572 87.0807L16.5378 88.8238L26.1693 83.4061L25.1888 81.6629ZM19 58.479C19 36.6017 36.3467 18.7755 58.0355 18.005L57.9645 16.0062C35.2033 16.8149 17 35.5209 17 58.479H19ZM23.9036 77.8125C20.7769 72.0681 19 65.4825 19 58.479H17C17 65.8248 18.8645 72.7382 22.1469 78.7686L23.9036 77.8125ZM14.039 84.4927L23.5155 79.1621L22.535 77.419L13.0584 82.7495L14.039 84.4927ZM16.5291 86.8798L14.4203 83.1308L12.6771 84.1114L14.7859 87.8603L16.5291 86.8798ZM6 58.479C6 69.3548 9.24629 79.4754 14.823 87.9211L16.492 86.819C11.1245 78.6903 8 68.9511 8 58.479H6ZM57.972 5.00039C29.131 5.80953 6 29.4428 6 58.479H8C8 30.5286 30.2664 7.77847 58.028 6.99961L57.972 5.00039ZM59 17.0056V6H57V17.0056H59Z" fill="#F39C12" mask="url(#path-2-inside-1_4_2)"/>
    <path d="M72.25 48.5724V47.354C72.25 41.8677 63.9747 37.729 53 37.729C42.0253 37.729 33.75 41.8677 33.75 47.354V56.104C33.75 60.6737 39.4922 64.3049 47.75 65.3921V66.604C47.75 72.0902 56.0253 76.229 67 76.229C77.9747 76.229 86.25 72.0902 86.25 66.604V57.854C86.25 53.3258 80.6894 49.6902 72.25 48.5724ZM44.25 61.1068C39.9647 59.9102 37.25 57.9393 37.25 56.104V53.0262C39.035 54.2905 41.4259 55.3099 44.25 55.9946V61.1068ZM61.75 55.9946C64.5741 55.3099 66.965 54.2905 68.75 53.0262V56.104C68.75 57.9393 66.0353 59.9102 61.75 61.1068V55.9946ZM58.25 71.6068C53.9647 70.4102 51.25 68.4393 51.25 66.604V65.6918C51.8253 65.7137 52.4072 65.729 53 65.729C53.8488 65.729 54.6778 65.7005 55.4916 65.6524C56.3956 65.976 57.3164 66.2506 58.25 66.4749V71.6068ZM58.25 61.8462C56.5118 62.1029 54.757 62.2309 53 62.229C51.243 62.2309 49.4882 62.1029 47.75 61.8462V56.6421C49.4908 56.8689 51.2445 56.9815 53 56.979C54.7555 56.9815 56.5092 56.8689 58.25 56.6421V61.8462ZM72.25 72.3462C68.7686 72.8566 65.2314 72.8566 61.75 72.3462V67.129C63.4902 67.3629 65.2441 67.4798 67 67.479C68.7555 67.4815 70.5092 67.3689 72.25 67.1421V72.3462ZM82.75 66.604C82.75 68.4393 80.0353 70.4102 75.75 71.6068V66.4946C78.5741 65.8099 80.965 64.7905 82.75 63.5262V66.604Z" fill="#F39C12"/>
</svg>
